<control>


default_path=//NDK/samples/kicks/kd14bop/snare_on/cls\


<global>




ampeg_attack=0.001


ampeg_release=0.15


ampeg_dynamic=1




volume=0




<group> //Begin Group for entire instrument




<region>
sample=kd14wbop_cls_001.wav
lokey=11
hikey=11
pitch_keycenter=11
lovel=0
hivel=0
volume=12


<region>
sample=kd14wbop_cls_002.wav
lokey=11
hikey=11
pitch_keycenter=11
lovel=1
hivel=2
volume=12


<region>
sample=kd14wbop_cls_003.wav
lokey=11
hikey=11
pitch_keycenter=11
lovel=3
hivel=3
volume=12


<region>
sample=kd14wbop_cls_004x.wav
lokey=11
hikey=11
pitch_keycenter=11
lovel=4
hivel=5
volume=12


<region>
sample=kd14wbop_cls_005.wav
lokey=11
hikey=11
pitch_keycenter=11
lovel=6
hivel=6
volume=11


<region>
sample=kd14wbop_cls_006.wav
lokey=11
hikey=11
pitch_keycenter=11
lovel=7
hivel=8
volume=11


<region>
sample=kd14wbop_cls_007.wav
lokey=11
hikey=11
pitch_keycenter=11
lovel=9
hivel=9
volume=11


<region>
sample=kd14wbop_cls_008.wav
lokey=11
hikey=11
pitch_keycenter=11
lovel=10
hivel=11
volume=11


<region>
sample=kd14wbop_cls_009.wav
lokey=11
hikey=11
pitch_keycenter=11
lovel=12
hivel=13
volume=11


<region>
sample=kd14wbop_cls_010.wav
lokey=11
hikey=11
pitch_keycenter=11
lovel=14
hivel=14
volume=11


<region>
sample=kd14wbop_cls_011x.wav
lokey=11
hikey=11
pitch_keycenter=11
lovel=15
hivel=16
volume=11


<region>
sample=kd14wbop_cls_012.wav
lokey=11
hikey=11
pitch_keycenter=11
lovel=17
hivel=17
volume=10


<region>
sample=kd14wbop_cls_013.wav
lokey=11
hikey=11
pitch_keycenter=11
lovel=18
hivel=19
volume=10


<region>
sample=kd14wbop_cls_014.wav
lokey=11
hikey=11
pitch_keycenter=11
lovel=20
hivel=20
volume=10


<region>
sample=kd14wbop_cls_015x.wav
lokey=11
hikey=11
pitch_keycenter=11
lovel=21
hivel=22
volume=10


<region>
sample=kd14wbop_cls_016x.wav
lokey=11
hikey=11
pitch_keycenter=11
lovel=23
hivel=24
volume=10


<region>
sample=kd14wbop_cls_017x.wav
lokey=11
hikey=11
pitch_keycenter=11
lovel=25
hivel=25
volume=10


<region>
sample=kd14wbop_cls_018x.wav
lokey=11
hikey=11
pitch_keycenter=11
lovel=26
hivel=27
volume=9


<region>
sample=kd14wbop_cls_019x.wav
lokey=11
hikey=11
pitch_keycenter=11
lovel=28
hivel=28
volume=9


<region>
sample=kd14wbop_cls_020x.wav
lokey=11
hikey=11
pitch_keycenter=11
lovel=29
hivel=30
volume=9


<region>
sample=kd14wbop_cls_021x.wav
lokey=11
hikey=11
pitch_keycenter=11
lovel=31
hivel=31
volume=9


<region>
sample=kd14wbop_cls_022x.wav
lokey=11
hikey=11
pitch_keycenter=11
lovel=32
hivel=33
volume=9


<region>
sample=kd14wbop_cls_023x.wav
lokey=11
hikey=11
pitch_keycenter=11
lovel=34
hivel=35
volume=9


<region>
sample=kd14wbop_cls_024x.wav
lokey=11
hikey=11
pitch_keycenter=11
lovel=36
hivel=36
volume=9


<region>
sample=kd14wbop_cls_025x.wav
lokey=11
hikey=11
pitch_keycenter=11
lovel=37
hivel=38
volume=8


<region>
sample=kd14wbop_cls_026x.wav
lokey=11
hikey=11
pitch_keycenter=11
lovel=39
hivel=39
volume=8


<region>
sample=kd14wbop_cls_027x.wav
lokey=11
hikey=11
pitch_keycenter=11
lovel=40
hivel=41
volume=8


<region>
sample=kd14wbop_cls_028x.wav
lokey=11
hikey=11
pitch_keycenter=11
lovel=42
hivel=42
volume=8


<region>
sample=kd14wbop_cls_029x.wav
lokey=11
hikey=11
pitch_keycenter=11
lovel=43
hivel=44
volume=8


<region>
sample=kd14wbop_cls_030x.wav
lokey=11
hikey=11
pitch_keycenter=11
lovel=45
hivel=46
volume=8


<region>
sample=kd14wbop_cls_031.wav
lokey=11
hikey=11
pitch_keycenter=11
lovel=47
hivel=47
volume=8


<region>
sample=kd14wbop_cls_032.wav
lokey=11
hikey=11
pitch_keycenter=11
lovel=48
hivel=49
volume=7


<region>
sample=kd14wbop_cls_033x.wav
lokey=11
hikey=11
pitch_keycenter=11
lovel=50
hivel=50
volume=7


<region>
sample=kd14wbop_cls_034.wav
lokey=11
hikey=11
pitch_keycenter=11
lovel=51
hivel=52
volume=7


<region>
sample=kd14wbop_cls_035.wav
lokey=11
hikey=11
pitch_keycenter=11
lovel=53
hivel=53
volume=7


<region>
sample=kd14wbop_cls_036x.wav
lokey=11
hikey=11
pitch_keycenter=11
lovel=54
hivel=55
volume=7


<region>
sample=kd14wbop_cls_037x.wav
lokey=11
hikey=11
pitch_keycenter=11
lovel=56
hivel=57
volume=7


<region>
sample=kd14wbop_cls_038.wav
lokey=11
hikey=11
pitch_keycenter=11
lovel=58
hivel=58
volume=7


<region>
sample=kd14wbop_cls_039x.wav
lokey=11
hikey=11
pitch_keycenter=11
lovel=59
hivel=60
volume=6


<region>
sample=kd14wbop_cls_040.wav
lokey=11
hikey=11
pitch_keycenter=11
lovel=61
hivel=61
volume=6


<region>
sample=kd14wbop_cls_041x.wav
lokey=11
hikey=11
pitch_keycenter=11
lovel=62
hivel=63
volume=6


<region>
sample=kd14wbop_cls_042.wav
lokey=11
hikey=11
pitch_keycenter=11
lovel=64
hivel=64
volume=6


<region>
sample=kd14wbop_cls_043.wav
lokey=11
hikey=11
pitch_keycenter=11
lovel=65
hivel=66
volume=6


<region>
sample=kd14wbop_cls_044.wav
lokey=11
hikey=11
pitch_keycenter=11
lovel=67
hivel=67
volume=6


<region>
sample=kd14wbop_cls_045.wav
lokey=11
hikey=11
pitch_keycenter=11
lovel=68
hivel=69
volume=6


<region>
sample=kd14wbop_cls_046.wav
lokey=11
hikey=11
pitch_keycenter=11
lovel=70
hivel=71
volume=5


<region>
sample=kd14wbop_cls_047.wav
lokey=11
hikey=11
pitch_keycenter=11
lovel=72
hivel=72
volume=5


<region>
sample=kd14wbop_cls_048.wav
lokey=11
hikey=11
pitch_keycenter=11
lovel=73
hivel=74
volume=5


<region>
sample=kd14wbop_cls_049.wav
lokey=11
hikey=11
pitch_keycenter=11
lovel=75
hivel=75
volume=5


<region>
sample=kd14wbop_cls_050.wav
lokey=11
hikey=11
pitch_keycenter=11
lovel=76
hivel=77
volume=5


<region>
sample=kd14wbop_cls_051.wav
lokey=11
hikey=11
pitch_keycenter=11
lovel=78
hivel=78
volume=5


<region>
sample=kd14wbop_cls_052.wav
lokey=11
hikey=11
pitch_keycenter=11
lovel=79
hivel=80
volume=4


<region>
sample=kd14wbop_cls_053x.wav
lokey=11
hikey=11
pitch_keycenter=11
lovel=81
hivel=82
volume=4


<region>
sample=kd14wbop_cls_054.wav
lokey=11
hikey=11
pitch_keycenter=11
lovel=83
hivel=83
volume=4


<region>
sample=kd14wbop_cls_055x.wav
lokey=11
hikey=11
pitch_keycenter=11
lovel=84
hivel=85
volume=4


<region>
sample=kd14wbop_cls_056.wav
lokey=11
hikey=11
pitch_keycenter=11
lovel=86
hivel=86
volume=4


<region>
sample=kd14wbop_cls_057.wav
lokey=11
hikey=11
pitch_keycenter=11
lovel=87
hivel=88
volume=4


<region>
sample=kd14wbop_cls_058.wav
lokey=11
hikey=11
pitch_keycenter=11
lovel=89
hivel=89
volume=4


<region>
sample=kd14wbop_cls_059.wav
lokey=11
hikey=11
pitch_keycenter=11
lovel=90
hivel=91
volume=3


<region>
sample=kd14wbop_cls_060.wav
lokey=11
hikey=11
pitch_keycenter=11
lovel=92
hivel=93
volume=3


<region>
sample=kd14wbop_cls_061x.wav
lokey=11
hikey=11
pitch_keycenter=11
lovel=94
hivel=94
volume=3


<region>
sample=kd14wbop_cls_062x.wav
lokey=11
hikey=11
pitch_keycenter=11
lovel=95
hivel=96
volume=3


<region>
sample=kd14wbop_cls_063.wav
lokey=11
hikey=11
pitch_keycenter=11
lovel=97
hivel=97
volume=3


<region>
sample=kd14wbop_cls_064.wav
lokey=11
hikey=11
pitch_keycenter=11
lovel=98
hivel=99
volume=3


<region>
sample=kd14wbop_cls_065x.wav
lokey=11
hikey=11
pitch_keycenter=11
lovel=100
hivel=100
volume=3


<region>
sample=kd14wbop_cls_066x.wav
lokey=11
hikey=11
pitch_keycenter=11
lovel=101
hivel=102
volume=2


<region>
sample=kd14wbop_cls_067.wav
lokey=11
hikey=11
pitch_keycenter=11
lovel=103
hivel=104
volume=2


<region>
sample=kd14wbop_cls_068.wav
lokey=11
hikey=11
pitch_keycenter=11
lovel=105
hivel=105
volume=2


<region>
sample=kd14wbop_cls_069x.wav
lokey=11
hikey=11
pitch_keycenter=11
lovel=106
hivel=107
volume=2


<region>
sample=kd14wbop_cls_070x.wav
lokey=11
hikey=11
pitch_keycenter=11
lovel=108
hivel=108
volume=2


<region>
sample=kd14wbop_cls_071x.wav
lokey=11
hikey=11
pitch_keycenter=11
lovel=109
hivel=110
volume=2


<region>
sample=kd14wbop_cls_072x.wav
lokey=11
hikey=11
pitch_keycenter=11
lovel=111
hivel=111
volume=2


<region>
sample=kd14wbop_cls_073x.wav
lokey=11
hikey=11
pitch_keycenter=11
lovel=112
hivel=113
volume=1


<region>
sample=kd14wbop_cls_074.wav
lokey=11
hikey=11
pitch_keycenter=11
lovel=114
hivel=115
volume=1


<region>
sample=kd14wbop_cls_075x.wav
lokey=11
hikey=11
pitch_keycenter=11
lovel=116
hivel=116
volume=1


<region>
sample=kd14wbop_cls_076.wav
lokey=11
hikey=11
pitch_keycenter=11
lovel=117
hivel=118
volume=1


<region>
sample=kd14wbop_cls_077.wav
lokey=11
hikey=11
pitch_keycenter=11
lovel=119
hivel=119
volume=1


<region>
sample=kd14wbop_cls_078x.wav
lokey=11
hikey=11
pitch_keycenter=11
lovel=120
hivel=121
volume=1


<region>
sample=kd14wbop_cls_079x.wav
lokey=11
hikey=11
pitch_keycenter=11
lovel=122
hivel=122
volume=0


<region>
sample=kd14wbop_cls_080.wav
lokey=11
hikey=11
pitch_keycenter=11
lovel=123
hivel=124
volume=0


<region>
sample=kd14wbop_cls_081.wav
lokey=11
hikey=11
pitch_keycenter=11
lovel=125
hivel=127
volume=0


